# Blender v3.0.0 OBJ File: 'Blue Door.blend'
# www.blender.org
mtllib Blue Door.mtl
o Blue_Door_Cube
v -2.598114 -1.092070 0.099372
v -2.598114 2.511506 0.099372
v -2.598114 -1.092070 -0.099372
v -2.598114 2.511506 -0.099372
v -0.598114 -1.092070 0.099372
v -0.598114 2.511506 0.099372
v -0.598114 -1.092070 -0.099372
v -0.598114 2.511506 -0.099372
v -2.535405 -1.025565 0.099372
v -2.535405 2.445001 0.099372
v -0.660822 2.445001 0.099372
v -0.660822 -1.025565 0.099372
v -2.535405 -1.025565 0.062285
v -2.535405 2.445001 0.062285
v -0.660822 2.445001 0.062285
v -0.660822 -1.025565 0.062285
v -2.213479 -0.816876 0.062285
v -0.990834 -0.820660 0.062285
v -0.990834 -0.254846 0.062285
v -2.216335 -0.254846 0.062285
v -2.213479 -0.816876 0.047351
v -0.990834 -0.820660 0.047351
v -0.990834 -0.254846 0.047351
v -2.216335 -0.254846 0.047351
v -2.222655 -0.149359 0.062285
v -0.991442 -0.149359 0.062285
v -0.991442 0.196754 0.062285
v -2.228369 0.196754 0.062285
v -2.222655 -0.149359 0.047341
v -0.991442 -0.149359 0.047341
v -0.991442 0.196754 0.047341
v -2.228369 0.196754 0.047341
v -2.354751 0.891855 0.062285
v -0.826591 0.891855 0.062285
v -0.826591 2.174483 0.062285
v -2.349579 2.174484 0.062285
v -2.354751 0.891855 0.043286
v -0.826591 0.891855 0.043286
v -0.826591 2.174483 0.043286
v -2.349579 2.174484 0.043286
v -0.764686 0.698566 0.045640
v -0.764686 0.684491 0.089516
v -0.737321 0.687231 0.045640
v -0.747883 0.677278 0.094085
v -0.725986 0.659866 0.045640
v -0.740923 0.659866 0.095977
v -0.737321 0.632501 0.045640
v -0.747883 0.642453 0.094085
v -0.764686 0.621166 0.045640
v -0.764686 0.635240 0.089516
v -0.792051 0.632501 0.045640
v -0.781489 0.642453 0.084947
v -0.803386 0.659866 0.045640
v -0.788448 0.659866 0.083055
v -0.792051 0.687231 0.045640
v -0.781489 0.677278 0.084947
v -0.774996 0.675668 0.124827
v -0.784191 0.682214 0.111975
v -0.771188 0.659866 0.130151
v -0.774996 0.644063 0.124827
v -0.784191 0.637518 0.111975
v -0.793385 0.644063 0.099123
v -0.797194 0.659866 0.093800
v -0.793385 0.675668 0.099123
v -0.764686 0.696683 0.067578
v -0.738652 0.685899 0.067578
v -0.727868 0.659866 0.067578
v -0.738652 0.633832 0.067578
v -0.764686 0.623048 0.067578
v -0.790720 0.633832 0.067578
v -0.801503 0.659866 0.067578
v -0.790720 0.685899 0.067578
v -0.827767 0.672475 0.125776
v -0.828862 0.677698 0.115911
v -0.827314 0.659866 0.129862
v -0.827767 0.647257 0.125776
v -0.828862 0.642034 0.115911
v -0.829957 0.647257 0.106047
v -0.830410 0.659866 0.101961
v -0.829957 0.672475 0.106047
v -0.897224 0.672475 0.125871
v -0.897292 0.677698 0.116160
v -0.897196 0.659866 0.129893
v -0.897224 0.647257 0.125871
v -0.897292 0.642034 0.116160
v -0.897360 0.647257 0.106450
v -0.897388 0.659866 0.102427
v -0.897360 0.672475 0.106450
v -0.930947 0.667887 0.121952
v -0.930990 0.671209 0.113930
v -0.930929 0.659866 0.125274
v -0.930947 0.651844 0.121952
v -0.930990 0.648522 0.113930
v -0.931033 0.651844 0.105909
v -0.931051 0.659866 0.102587
v -0.931033 0.667887 0.105909
vn -1.0000 0.0000 0.0000
vn 0.0000 0.0000 -1.0000
vn 1.0000 0.0000 0.0000
vn 0.0000 0.0000 1.0000
vn 0.0000 -1.0000 0.0000
vn 0.0000 1.0000 0.0000
vn 1.0000 0.0051 0.0000
vn 0.0031 1.0000 0.0000
vn 0.9999 0.0165 0.0000
vn 1.0000 -0.0040 0.0000
vn 0.3118 0.8500 0.4246
vn 0.8427 0.3615 0.3988
vn 0.8427 -0.3615 0.3988
vn 0.3118 -0.8500 0.4246
vn -0.3801 -0.7775 0.5010
vn -0.7573 -0.2837 0.5883
vn -0.7291 0.3625 -0.5805
vn -0.7573 0.2837 0.5883
vn -0.3801 0.7775 0.5010
vn -0.1399 -0.9037 -0.4048
vn 0.6945 -0.3604 0.6228
vn -0.7291 -0.3625 -0.5805
vn 0.6945 0.3604 0.6228
vn 0.2755 0.9106 0.3080
vn -0.3489 -0.9151 -0.2020
vn -0.3489 0.9151 -0.2020
vn 0.2755 -0.9106 0.3080
vn -0.3815 0.9210 0.0790
vn -0.9210 0.3815 0.0790
vn -0.9210 -0.3815 0.0790
vn -0.3815 -0.9210 0.0790
vn 0.3815 -0.9210 0.0790
vn 0.9210 -0.3815 0.0790
vn 0.9210 0.3815 0.0790
vn 0.3815 0.9210 0.0790
vn -0.0023 -0.8823 -0.4707
vn -0.0456 0.8784 0.4757
vn -0.2137 -0.3359 -0.9174
vn -0.0035 0.3139 0.9494
vn -0.2137 0.3359 -0.9174
vn -0.0035 -0.3139 0.9494
vn -0.1399 0.9037 -0.4048
vn -0.0456 -0.8784 0.4757
vn -0.1292 -0.8936 -0.4298
vn 0.0012 0.8823 0.4707
vn -0.0062 -0.3062 -0.9519
vn 0.0009 0.3061 0.9520
vn -0.0062 0.3062 -0.9519
vn 0.0009 -0.3061 0.9520
vn -0.0023 0.8823 -0.4707
vn 0.0012 -0.8823 0.4707
vn -1.0000 -0.0000 0.0054
vn -0.1844 0.8849 0.4276
vn -0.0175 -0.3354 -0.9419
vn -0.1406 0.3318 0.9328
vn -0.0175 0.3354 -0.9419
vn -0.1406 -0.3318 0.9328
vn -0.1292 0.8936 -0.4298
vn -0.1844 -0.8849 0.4276
usemtl Material
s off
f 1//1 2//1 4//1 3//1
f 3//2 4//2 8//2 7//2
f 7//3 8//3 6//3 5//3
f 1//4 5//4 12//4 9//4
f 3//5 7//5 5//5 1//5
f 8//6 4//6 2//6 6//6
f 9//6 12//6 16//6 13//6
f 6//4 2//4 10//4 11//4
f 2//4 1//4 9//4 10//4
f 5//4 6//4 11//4 12//4
f 16//4 18//4 17//4 20//4 13//4
f 11//5 10//5 14//5 15//5
f 10//3 9//3 13//3 14//3
f 12//1 11//1 15//1 16//1
f 22//4 23//4 24//4 21//4
f 13//4 20//4 19//4 18//4 16//4 26//4 25//4 28//4
f 19//5 20//5 24//5 23//5
f 20//7 17//7 21//7 24//7
f 17//8 18//8 22//8 21//8
f 18//1 19//1 23//1 22//1
f 28//9 25//9 29//9 32//9
f 27//4 26//4 16//4 15//4 34//4 33//4 14//4 13//4 28//4
f 32//4 29//4 30//4 31//4
f 25//6 26//6 30//6 29//6
f 26//1 27//1 31//1 30//1
f 27//5 28//5 32//5 31//5
f 14//4 33//4 36//4 35//4 34//4 15//4
f 35//5 36//5 40//5 39//5
f 36//10 33//10 37//10 40//10
f 33//6 34//6 38//6 37//6
f 34//1 35//1 39//1 38//1
usemtl Material.001
f 65//11 42//11 44//11 66//11
f 66//12 44//12 46//12 67//12
f 67//13 46//13 48//13 68//13
f 68//14 48//14 50//14 69//14
f 69//15 50//15 52//15 70//15
f 70//16 52//16 54//16 71//16
f 56//17 54//17 63//17 64//17
f 71//18 54//18 56//18 72//18
f 72//19 56//19 42//19 65//19
f 41//2 43//2 45//2 47//2 49//2 51//2 53//2 55//2
f 62//20 61//20 77//20 78//20
f 48//21 46//21 59//21 60//21
f 54//22 52//22 62//22 63//22
f 46//23 44//23 57//23 59//23
f 44//24 42//24 58//24 57//24
f 52//25 50//25 61//25 62//25
f 42//26 56//26 64//26 58//26
f 50//27 48//27 60//27 61//27
f 55//28 72//28 65//28 41//28
f 53//29 71//29 72//29 55//29
f 51//30 70//30 71//30 53//30
f 49//31 69//31 70//31 51//31
f 47//32 68//32 69//32 49//32
f 45//33 67//33 68//33 47//33
f 43//34 66//34 67//34 45//34
f 41//35 65//35 66//35 43//35
f 78//36 77//36 85//36 86//36
f 57//37 58//37 74//37 73//37
f 63//38 62//38 78//38 79//38
f 59//39 57//39 73//39 75//39
f 64//40 63//40 79//40 80//40
f 60//41 59//41 75//41 76//41
f 58//42 64//42 80//42 74//42
f 61//43 60//43 76//43 77//43
f 86//44 85//44 93//44 94//44
f 73//45 74//45 82//45 81//45
f 79//46 78//46 86//46 87//46
f 75//47 73//47 81//47 83//47
f 80//48 79//48 87//48 88//48
f 76//49 75//49 83//49 84//49
f 74//50 80//50 88//50 82//50
f 77//51 76//51 84//51 85//51
f 89//52 90//52 96//52 95//52 94//52 93//52 92//52 91//52
f 81//53 82//53 90//53 89//53
f 87//54 86//54 94//54 95//54
f 83//55 81//55 89//55 91//55
f 88//56 87//56 95//56 96//56
f 84//57 83//57 91//57 92//57
f 82//58 88//58 96//58 90//58
f 85//59 84//59 92//59 93//59
usemtl Material.002
f 38//4 39//4 40//4 37//4
